# xmcd
#
# Track frame offsets: 
#        150
#        17767
#        30788
#        49024
#        67885
#        84628
#        102101
#        117766
#        133935
#        152006
#        168550
#        185017
#        202866
#        219846
#        239443
#        253930
#        267605
#        281255
#        297471
#        311633
#        326428
#
# Disc length: 4539 seconds
#
# Revision: 0
# Processed by: cddbd v1.5.2PL0 Copyright (c) Steve Scherf et al.
# Submitted via: ExactAudioCopyFreeDBPlugin 1.0
#
DISCID=2b11b915
DTITLE=Various Artist - Official 2014 ACM Awards ZinePak
DYEAR=2014
DGENRE=Country
TTITLE0=Luke Bryan - Crash My Party
TTITLE1=Miranda Lambert - Mama's Broken Heart
TTITLE2=Blake Shelton - Mine Would Be You
TTITLE3=George Strait - Give It All We Got Tonight
TTITLE4=Taylor Swift - Red
TTITLE5=Lee Brice - I Drive Your Truck
TTITLE6=Kacey Musgraves - Merry Go 'Round
TTITLE7=Florida Georgia Line - Round Here
TTITLE8=Carrie Underwood - Two Black Cadillacs
TTITLE9=Sheryl Crow - Easy
TTITLE10=Dan and Shay - 19 You and Me
TTITLE11=Hunter Hayes - I Want Crazy
TTITLE12=Jerrod Niemann - Drink To That All Night
TTITLE13=Rascal Flatts - Changed
TTITLE14=Chris Young - Who I Am With You
TTITLE15=Brett Eldredge - Don't Ya
TTITLE16=Justin Moore - Point At You
TTITLE17=Kip Moore - Hey Pretty Girl
TTITLE18=Tyler Farr - Whiskey In My Water
TTITLE19=Parmalee - Back In The Day
TTITLE20=Thomas Rhett - It Goes Like This
EXTD=
EXTT0=
EXTT1=
EXTT2=
EXTT3=
EXTT4=
EXTT5=
EXTT6=
EXTT7=
EXTT8=
EXTT9=
EXTT10=
EXTT11=
EXTT12=
EXTT13=
EXTT14=
EXTT15=
EXTT16=
EXTT17=
EXTT18=
EXTT19=
EXTT20=
PLAYORDER=
